<svg xmlns="http://www.w3.org/2000/svg" xmlns:xlink="http://www.w3.org/1999/xlink" viewBox="0 0 4680 3120"><defs><style>.cls-1{fill:none;}.cls-2{isolation:isolate;}.cls-3{fill:#fff;}.cls-4{clip-path:url(#clip-path);}.cls-5{fill:url(#linear-gradient);}.cls-6{opacity:0.6;fill:url(#linear-gradient-2);}.cls-7{fill:url(#linear-gradient-3);}.cls-8{fill:url(#linear-gradient-4);}.cls-9{opacity:0.3;mix-blend-mode:overlay;}.cls-10{fill:url(#linear-gradient-5);}.cls-11{fill:url(#linear-gradient-6);}.cls-12{fill:#66d1a8;}.cls-13{fill:#f9b295;}.cls-14{fill:#c0f2e0;}.cls-15{fill:#8cddc0;}.cls-16{fill:#fbbd9d;}.cls-17,.cls-50{fill:#7fc6b2;}.cls-17{opacity:0.8;}.cls-18{fill:#3b9386;}.cls-19{fill:#fbb035;}.cls-20{fill:#f99c38;}.cls-21{fill:#e2a388;}.cls-22{fill:#e86942;}.cls-23{fill:#f4a88e;}.cls-24{fill:#dda187;}.cls-25{fill:#263238;}.cls-26{fill:#ffc5ab;}.cls-27{fill:#213a44;}.cls-28{fill:#183138;}.cls-29{fill:#455b64;}.cls-30{fill:#ffad36;}.cls-31{fill:#ef5959;}.cls-32{fill:#e53e3e;}.cls-33{fill:#e24444;}.cls-34{fill:#fc9e8b;}.cls-35{fill:#f47c69;}.cls-36{fill:#f7a784;}.cls-37{fill:#e8a691;}.cls-38{opacity:0.57;mix-blend-mode:screen;fill:url(#linear-gradient-7);}.cls-39{fill:url(#linear-gradient-8);}.cls-40{fill:#0287d1;}.cls-40,.cls-48{opacity:0.7;}.cls-41{fill:#11a1d9;}.cls-42{fill:#0073a0;}.cls-43{fill:#0085ba;}.cls-44{fill:#48489b;}.cls-45{fill:#5757ce;}.cls-46{fill:#6666f2;}.cls-47{fill:#9f9fff;}.cls-48,.cls-49{fill:#0472b5;}.cls-51{fill:#81c1a9;}.cls-52{fill:#32326d;}.cls-53{fill:#444491;}.cls-54{fill:#fa446c;}.cls-55{fill:#ffb127;}</style><clipPath id="clip-path"><path class="cls-1" d="M1646.06,201.14c-708-43.39-1333.33,428.88-1420.7,1074-10.9,80.51-12.26,160.69,2.38,233.53,65.1,323.74,37.2,417.46-46.49,647.48S125.45,2641.77,888,2692.88H3854.39s418.45-8.52,353.36-408.93,269.67-715.64,93-1107.54S3370.83,861.19,3008.17,682.28C2792.69,576,2248.93,238.09,1646.06,201.14Z"/></clipPath><linearGradient id="linear-gradient" x1="1835.99" y1="2319.42" x2="3653.53" y2="554.56" gradientUnits="userSpaceOnUse"><stop offset="0" stop-color="#fff"/><stop offset="0.28" stop-color="#fff6f7"/><stop offset="0.72" stop-color="#ffdfe0"/><stop offset="1" stop-color="#ffcdcf"/></linearGradient><linearGradient id="linear-gradient-2" x1="2692.13" y1="2717.86" x2="1404.92" y2="191.27" gradientUnits="userSpaceOnUse"><stop offset="0" stop-color="#fff"/><stop offset="0.13" stop-color="#fffbf6"/><stop offset="0.33" stop-color="#ffefdf"/><stop offset="0.59" stop-color="#ffdbb9"/><stop offset="0.88" stop-color="#ffc184"/><stop offset="1" stop-color="#ffb56d"/></linearGradient><linearGradient id="linear-gradient-3" x1="8622.03" y1="4191.03" x2="8940.15" y2="3536.61" gradientTransform="matrix(0.83, 0.56, -0.56, 0.83, -1700.86, -5446.76)" gradientUnits="userSpaceOnUse"><stop offset="0" stop-color="#f6b742"/><stop offset="1" stop-color="#fed348"/></linearGradient><linearGradient id="linear-gradient-4" x1="8499.3" y1="4299.8" x2="8512.94" y2="3727.18" gradientTransform="matrix(0.83, 0.56, -0.56, 0.83, -1700.86, -5446.76)" gradientUnits="userSpaceOnUse"><stop offset="0" stop-color="#0d5abf"/><stop offset="0.34" stop-color="#0f77c9"/><stop offset="0.76" stop-color="#1095d5"/><stop offset="1" stop-color="#11a1d9"/></linearGradient><linearGradient id="linear-gradient-5" x1="1429.87" y1="-2447.33" x2="1747.99" y2="-3101.75" gradientTransform="translate(2720.72 5430.18) rotate(-46.79)" xlink:href="#linear-gradient-3"/><linearGradient id="linear-gradient-6" x1="1307.14" y1="-2338.57" x2="1320.78" y2="-2911.18" gradientTransform="translate(2720.72 5430.18) rotate(-46.79)" xlink:href="#linear-gradient-4"/><linearGradient id="linear-gradient-7" x1="1893.09" y1="604.23" x2="2130.96" y2="1201.15" gradientUnits="userSpaceOnUse"><stop offset="0" stop-color="#fff" stop-opacity="0.8"/><stop offset="1"/></linearGradient><linearGradient id="linear-gradient-8" x1="463.5" y1="1016.27" x2="1705.74" y2="1016.27" gradientUnits="userSpaceOnUse"><stop offset="0" stop-color="#0d5abf"/><stop offset="0.33" stop-color="#0f77c9"/><stop offset="0.76" stop-color="#1095d5"/><stop offset="1" stop-color="#11a1d9"/></linearGradient></defs><g class="cls-2"><g id="Mỗi_hình_1_layer_riêng" data-name="Mỗi hình 1 layer riêng"><rect class="cls-3" width="4680" height="3120"/><g class="cls-4"><path class="cls-5" d="M1868.83,520C1291.56,482.15,781.66,894,710.42,1456.55c-8.9,70.21-10,140.13,1.94,203.65,53.07,282.32,30.33,364-37.91,564.63S629,2648.31,1250.7,2692.88H3669.46s341.2-7.43,288.13-356.61,219.88-624.06,75.82-965.81-758.23-274.89-1053.94-430.91C2803.77,846.85,2360.4,552.2,1868.83,520Z"/><path class="cls-6" d="M1781.9,469.93c-577.26-37.83-1087.17,374-1158.41,936.57-8.89,70.22-10,140.13,1.94,203.65,53.08,282.32,30.33,364-37.91,564.64s-50.76,473.52,571,518.09H3577.26s346.48-57.47,293.4-406.65,219.89-624.07,75.82-965.82S3188.25,1045.52,2892.54,889.5C2716.84,796.81,2273.47,502.16,1781.9,469.93Z"/><path class="cls-7" d="M3918.3,2362s-129,307-436.75,493.27-396.05,10.89-396.05,10.89S2971,2706.6,3278.76,2520.32,3918.3,2362,3918.3,2362Z"/><path class="cls-3" d="M3081.93,2868.34a2.71,2.71,0,0,0,3.73.92l758.82-459.37a2.72,2.72,0,0,0-2.82-4.66l-758.81,459.38A2.71,2.71,0,0,0,3081.93,2868.34Z"/><path class="cls-3" d="M3658,2518.39c-.16-1-11.74-75.91,12.36-140.45l6.18-1c-25.06,63.64-13.33,139.66-13.17,140.62Z"/><path class="cls-3" d="M3799.88,2432.52a342.12,342.12,0,0,1-2.07-69.58l5.42-.34a337.25,337.25,0,0,0,2,69.05Z"/><path class="cls-3" d="M3583.4,2563.57c-.18-1.16-15.27-98.62,21.58-172.68q3.48-.79,6.94-1.54c-38.67,72.75-23.34,172.19-23.15,173.35Z"/><path class="cls-3" d="M3261.62,2758.37c-.27-1.65-22.18-143.11,33-247.44,3-1.76,6.05-3.47,9.08-5.19-59.71,103.12-37,250.09-36.72,251.76Z"/><path class="cls-3" d="M3148,2829.53l-5.36.87c-.25-1.56-19.57-126.33,23.72-227.92q4.83-4.39,10-8.83C3127.25,2695.32,3147.76,2827.94,3148,2829.53Z"/><path class="cls-3" d="M3458.16,2640.42c-.24-1.45-18.42-118.85,22.47-214.2,2.32-.8,4.63-1.57,6.95-2.35-42.81,94.46-24.29,214.22-24.06,215.68Z"/><path class="cls-3" d="M3819,2533.48c-56.24-14.76-101.61-48.2-102.29-48.71l3.26-4.35c.67.5,46.39,34.18,102.32,48.34C3821.25,2530.32,3820.14,2531.9,3819,2533.48Z"/><path class="cls-3" d="M3625.39,2540.08l3.25-4.35c.87.64,69.6,51.29,144.79,58.92-1.33,1.67-2.66,3.34-4,5C3694,2590.67,3626.25,2540.73,3625.39,2540.08Z"/><path class="cls-3" d="M3340.84,2712.34l3.26-4.35c1.32,1,114,84.11,229.43,84.4q-3.47,2.66-7,5.29C3451.69,2794.13,3342.15,2713.32,3340.84,2712.34Z"/><path class="cls-3" d="M3184,2804.89c1.34,1,118.39,87.34,236.11,84.33q-5.64,2.81-11.16,5.45c-115.78-2.45-226.9-84.44-228.21-85.43Z"/><path class="cls-3" d="M3691.17,2688c-1.58,1.62-3.18,3.24-4.78,4.85-97.92-12.75-185.12-77.09-186.25-77.94l3.25-4.35C3504.53,2611.36,3593.2,2676.77,3691.17,2688Z"/><path class="cls-8" d="M3646.07,1852.6s-372.19,140-608.47,498.72-31,472.09-31,472.09,185.21,143.84,421.5-214.87S3646.07,1852.6,3646.07,1852.6Z"/><path class="cls-3" d="M3003.84,2827.58a3.25,3.25,0,0,1-.93-4.5l582.68-884.57a3.25,3.25,0,0,1,5.43,3.58l-582.68,884.56A3.25,3.25,0,0,1,3003.84,2827.58Z"/><path class="cls-3" d="M3447.64,2156.06c1.15.23,90,17.46,168.15-8.36q.77-3.67,1.52-7.32c-77.07,27-167.25,9.54-168.39,9.31Z"/><path class="cls-3" d="M3556.56,1990.7c.73.15,36.76,7.12,82.93,5.64.23-2.18.44-4.32.65-6.46a403.32,403.32,0,0,1-82.3-5.54Z"/><path class="cls-3" d="M3390.33,2243.05c1.38.28,117,22.72,207-17.89.73-2.74,1.44-5.47,2.15-8.21-88.57,42.83-206.53,20-207.91,19.73Z"/><path class="cls-3" d="M3143.24,2618.17c2,.39,169.76,33,296.77-28.13,2.23-3.52,4.41-7.06,6.6-10.59-125.77,66.56-300.11,32.75-302.09,32.35Z"/><path class="cls-3" d="M3053.16,2750.49l-1.28,6.36c1.84.37,149.85,29.09,273-17.94q5.46-5.57,11-11.47C3212.36,2781.37,3055.05,2750.86,3053.16,2750.49Z"/><path class="cls-3" d="M3292.93,2389c1.72.35,141,27.38,256.62-17.07,1.06-2.74,2.08-5.46,3.12-8.19-114.67,46.79-256.73,19.24-258.46,18.89Z"/><path class="cls-3" d="M3437,1963.24c15.05,67.78,52.89,123.45,53.47,124.28l5.34-3.69c-.57-.83-38.68-56.92-53-124.3Z"/><path class="cls-3" d="M3420.27,2194l5.34-3.69c-.73-1.07-58-85.38-63.72-175.45q-3.07,2.25-6.17,4.55C3363,2109.91,3419.53,2193,3420.27,2194Z"/><path class="cls-3" d="M3201.77,2525.73l5.35-3.69c-1.12-1.62-95.19-139.84-90.29-277.62q-3.32,4-6.63,8.08C3109.21,2389.73,3200.66,2524.12,3201.77,2525.73Z"/><path class="cls-3" d="M3084.2,2708.64c-1.14-1.65-98.83-145.25-89.88-285.59q-3.62,6.6-7,13.08c-2.36,138.26,90.43,274.58,91.54,276.2Z"/><path class="cls-3" d="M3246.8,2108.8c-2,1.81-4,3.65-6,5.49,10.76,117.42,83.57,224.4,84.52,225.79l5.35-3.69C3329.71,2335,3255.7,2226.22,3246.8,2108.8Z"/><path class="cls-10" d="M1579.26,1858.44s281.81,177.41,415.38,511.4-53.89,392.51-53.89,392.51-176.12,86.88-309.69-247.11S1579.26,1858.44,1579.26,1858.44Z"/><path class="cls-3" d="M1942.3,2766.23a2.72,2.72,0,0,0,1.51-3.54l-329.37-823.6a2.72,2.72,0,1,0-5,2l329.37,823.61A2.72,2.72,0,0,0,1942.3,2766.23Z"/><path class="cls-3" d="M1691.06,2140.74c-1,0-76.81-.81-136.55-35.11q0-3.15,0-6.27c58.69,35.11,135.61,35.94,136.59,35.94Z"/><path class="cls-3" d="M1629.49,1986.78a342.7,342.7,0,0,1-69-9.31c.19-1.83.37-3.62.56-5.41a337.73,337.73,0,0,0,68.45,9.28Z"/><path class="cls-3" d="M1723.45,2221.74c-1.17,0-99.78-1-166.84-49.47-.14-2.38-.27-4.74-.39-7.1,65.47,50,166.08,51.13,167.25,51.13Z"/><path class="cls-3" d="M1863.13,2571c-1.68,0-144.81-1.47-238.74-72.94-1.24-3.27-2.44-6.54-3.64-9.8,92,75.74,240.7,77.3,242.4,77.31Z"/><path class="cls-3" d="M1914.79,2694.7l0,5.43c-1.57,0-127.82-1.31-221-60.6q-3.54-5.49-7.08-11.25C1779,2693.28,1913.18,2694.69,1914.79,2694.7Z"/><path class="cls-3" d="M1778.83,2357.85c-1.47,0-120.26-1.23-207.66-57.13-.41-2.42-.79-4.83-1.18-7.24,86.21,57.65,207.38,58.93,208.86,58.93Z"/><path class="cls-3" d="M1732.22,1984.35c-23.73,53.08-64.14,92.38-64.75,93l-3.76-3.92c.6-.59,41.3-40.2,64.39-93.07C1729.47,1981.65,1730.85,1983,1732.22,1984.35Z"/><path class="cls-3" d="M1707.13,2176.49l-3.76-3.93c.78-.75,62-60.29,81.76-133.23,1.43,1.59,2.86,3.17,4.29,4.78C1768.23,2117.1,1707.91,2175.74,1707.13,2176.49Z"/><path class="cls-3" d="M1830.64,2485.33l-3.76-3.92c1.18-1.14,101.59-98.73,120.72-212.59q2.06,3.85,4.08,7.74C1929.43,2389.32,1831.82,2484.2,1830.64,2485.33Z"/><path class="cls-3" d="M1896.36,2655.15c1.21-1.17,105.49-102.56,121.73-219.19,1.24,4,2.42,8,3.55,11.9-21.3,113.83-120.33,210.07-121.52,211.21Z"/><path class="cls-3" d="M1863.77,2135.72c1.34,1.82,2.67,3.67,4,5.51-28.57,94.52-106.27,170.06-107.29,171l-3.77-3.92C1757.73,2307.36,1836.73,2230.55,1863.77,2135.72Z"/><path class="cls-11" d="M1032.24,2043.88s77.4,390,392.73,681.71,460.71,107.65,460.71,107.65,172.13-159.26-143.21-450.92S1032.24,2043.88,1032.24,2043.88Z"/><path class="cls-3" d="M1889.33,2836.62a3.23,3.23,0,0,1-4.58.18l-777.62-719.23a3.25,3.25,0,0,1,4.41-4.77L1889.16,2832A3.25,3.25,0,0,1,1889.33,2836.62Z"/><path class="cls-3" d="M1299.25,2289.18c.42-1.1,31.92-86,19.2-167.26l-7-2.7c14.06,80.45-17.88,166.56-18.29,167.66Z"/><path class="cls-3" d="M1153.89,2154.73a409.61,409.61,0,0,0,19.09-80.9c-2.11-.58-4.19-1.13-6.27-1.69a403.3,403.3,0,0,1-18.9,80.29Z"/><path class="cls-3" d="M1375.72,2359.91c.5-1.31,41.51-111.7,16.14-207.18-2.59-1.17-5.17-2.31-7.75-3.46,27.8,94.37-14,207-14.46,208.34Z"/><path class="cls-3" d="M1705.48,2664.91c.71-1.87,60.24-162.1,20.69-297.38q-4.68-4.16-9.38-8.24c45.15,134.94-16.66,301.43-17.38,303.32Z"/><path class="cls-3" d="M1821.33,2775.38l6.07,2.3c.66-1.76,53.16-143.09,26.86-272.31q-4.6-6.3-9.52-12.71C1877.78,2623.35,1822,2773.58,1821.33,2775.38Z"/><path class="cls-3" d="M1503.83,2479.83c.62-1.64,50-134.63,25-256-2.52-1.5-5-2.95-7.56-4.42,27.44,120.77-22.92,256.43-23.55,258.08Z"/><path class="cls-3" d="M1107.27,2268.25c69.33-3.79,130.43-32,131.34-32.47l-2.77-5.88c-.9.43-62.46,28.88-131.29,32C1105.44,2264,1106.36,2266.14,1107.27,2268.25Z"/><path class="cls-3" d="M1332.24,2322.38l-2.77-5.88c-1.17.55-93.71,43.33-183.49,34.23,1.15,2.28,2.31,4.55,3.48,6.84C1239.91,2365.13,1331.07,2322.93,1332.24,2322.38Z"/><path class="cls-3" d="M1623.83,2592.08l-2.76-5.88c-1.78.84-153.5,71.09-288.63,43.77q3.4,3.93,6.88,7.86C1474.56,2661.2,1622.07,2592.91,1623.83,2592.08Z"/><path class="cls-3" d="M1785.1,2737.93c-1.81.85-159.43,73.8-296.42,42.07q5.92,4.64,11.76,9c136,24.89,285.66-44.4,287.43-45.24Z"/><path class="cls-3" d="M1219.84,2479.61q2.21,3.42,4.44,6.82c117.6,8.54,235-45.83,236.56-46.55l-2.77-5.87C1456.54,2434.73,1337.14,2490,1219.84,2479.61Z"/><ellipse class="cls-12" cx="3388.75" cy="1944.8" rx="84.29" ry="289.75" transform="translate(-130.46 247.44) rotate(-4.1)"/><polygon class="cls-13" points="3441.81 2112.51 3230.7 2071.23 3270.22 1757.77 3388.75 1839.43 3441.81 2112.51"/><path class="cls-14" d="M3404.55,2231.91l-339.8-73.75-43.14-524.85-4.27-52,310.83,68.48s-3.9,17.34-7.33,48.66C3311,1788,3305,1991.87,3404.55,2231.91Z"/><path class="cls-15" d="M3280.75,1878.94c-1.46-43.87-9.42-81-20.15-111.85-13.49-38.74,20.16-77.39,60.24-68.66h0c3.43-31.32,7.33-48.66,7.33-48.66l-310.83-68.48,4.27,52,95.36,20.75-29.83,226.2L3080.56,2037l105.36,147.47,135.66,29.44C3251.78,2095.8,3286,2037,3280.75,1878.94Z"/><path class="cls-12" d="M1390.77,1680.07c0,147.53-25.7,271-60.16,302.87-5.64,5.21-11.51,8-17.54,8-42.91,0-77.71-139.16-77.71-310.82,0-144.72,24.74-266.34,58.22-301a36.53,36.53,0,0,1,9.56-7.38h0l19.31-.21C1361,1390.05,1390.77,1521.12,1390.77,1680.07Z"/><path class="cls-16" d="M1411.85,1793.33s-140.93,90.88-443.85-401.7l-223.9-108-98.78-143.56,21.07-81.65,466.24,21.07s52.68,245,76.39,279.22,166,89.56,181.75,84.29C1390.77,1443,1511.94,1595.78,1411.85,1793.33Z"/><path class="cls-15" d="M2415.45,2707.37c-219.95,6.59-467.56-14.49-467.56-14.49-5.87-8.93-96.15-195.9-128-269.6-85.56-197.79-184.1-448.19-184.1-448.19l-4.82-.4h-.13c-101.84-7.79-270.13,10.64-317.73,14.89,52.68-18.44,77.7-162,77.7-309.51,0-159-29.81-290-68.3-308.54l514.79-6.24,217.31,599.26Z"/><path class="cls-14" d="M2617,2384.69l-176.48,260.78h-115.9c-85.43-60.64-160.79-175.33-225.46-311.67-182.62-384.87-280.29-942.17-280.29-942.17l790.23,121.17,6.11,674.47Z"/><path class="cls-17" d="M2617,2384.69l-160.68,313.46-110.63-5.27c-85.42-60.63-355.6-579.5-387.21-785,4,2.76,442.53,993.06,656.73,279.35Z"/><path class="cls-18" d="M1800.54,1354.24l62.07-1.52a25.19,25.19,0,0,1,25.77,23.93c4.31,85.67,12.66,381.73,93.75,586.58,150.15,379.32,397.75,629.56,397.75,629.56l-19.75,114.58s-441.22-370.09-566.34-979.89c0,0-35.23-178.62-17-351.46A24.46,24.46,0,0,1,1800.54,1354.24Z"/><path class="cls-16" d="M2316.67,2316.21s50.72,246.59,28,377.48c0,0,55,53.19,136.64,26.85,0,0,39.51-113.26,29-242.34S2420.71,2212.16,2316.67,2316.21Z"/><path class="cls-19" d="M2454.88,1772.84a141.57,141.57,0,0,1-23.26,17c-24.37,14.3-50.52,20.52-71,23.13a56.42,56.42,0,0,1-7.19.45c.84-16,1.47-25.34,1.47-25.34Z"/><path class="cls-19" d="M2478.66,2341.23c-2.1.9-4.21,1.74-6.29,2.55-47.57,18.5-90.43,17-124.38,9-48.42-11.51-78.74-36.53-78.74-36.53,5.27-26.35-5.27-142.25-5.27-142.25-42.14-405.65,73.76-413.55,73.76-413.55C2510.27,1719.58,2478.66,2341.23,2478.66,2341.23Z"/><path class="cls-20" d="M2472.37,2343.78c-47.57,18.5-90.43,17-124.38,9-9.94-366.4,5.55-397.41,5.55-397.41C2495.18,1991,2478.74,2273.35,2472.37,2343.78Z"/><path class="cls-21" d="M3233.34,2326.74s36.88,260.78-140,183.42c-183.83-80.4-4.86-222.93,32-212.39S3233.34,2326.74,3233.34,2326.74Z"/><path class="cls-22" d="M2678.86,1443c-44.78-160.68-113.27-147.51-113.27-147.51s-55.32,10.53-76.39,76.39a231.74,231.74,0,0,1-15.36,36.32c-1.63,3.13-3.32,6.22-5.05,9.22a353.61,353.61,0,0,1-56,73s-2.16,21.94-2.26,55.34c-.14,42.39,3,103.23,18.07,161.24,6.05,23.39,14.06,46.28,24.57,67.33.58-.48,1.13-1,1.69-1.48a132.19,132.19,0,0,0,13.25-13.75s165.95,55.32,279.21,23.71q4.78-1.35,9.8-2.24c20.39-36.88,36.59-87.88,42.89-158.44l5.24-57.53C2765.07,1563.38,2706.7,1542.88,2678.86,1443Z"/><path class="cls-23" d="M1980.82,1535.19s-34.25,129.07,102.73,144.88,273.94-245,268.68-276.58S2020.33,1395.58,1980.82,1535.19Z"/><path class="cls-24" d="M2028.63,1596.43c-7.41-16.49-13.57-27-13.57-27l1.53-.15Z"/><path class="cls-25" d="M2440.47,1233.58s-13.17,94.83-29,118.54c-30.12,45.18-94.54,83.83-117.07,82.75L2314,1259.93l44.78-58Z"/><path class="cls-3" d="M1971.58,1498.38s-56.08,98.57-53.44,182.86,15.8,100.09,15.8,100.09L2038.8,1669S1971.58,1632.82,1971.58,1498.38Z"/><path class="cls-13" d="M2373.3,1245.44c-2.32,44.15-61,156.91-74.81,182.91a52.4,52.4,0,0,1-7,10.2c-11.78,13.43-40,65.06-80.16,98-29,23.7-102.73,100.09-247.61,39.51-10.87-4.56-20.73-12.41-29.39-22.94-31.59-38.28-47.57-111.66-40.91-187.68,4.37-50,13.25-102.81,23-150.46,18.22-89.35,39.4-160.47,39.4-160.47,43.47-127.76,206.78-75.08,277.9-80.35,11.35-.84,22.71,4.22,33.74,13.54l0,0C2325.65,1036.71,2375.51,1203.37,2373.3,1245.44Z"/><path class="cls-26" d="M2360.13,1232.27c-2.32,44.15-61,156.91-74.81,182.91a52,52,0,0,1-7,10.19c-11.78,13.44-40,65.07-80.16,98-29,23.7-102.73,100.09-247.61,39.51a67.1,67.1,0,0,1-16.22-9.77c-31.59-38.28-47.57-111.66-40.91-187.68,4.37-50,13.25-102.81,23-150.46,18.22-89.35,39.4-160.47,39.4-160.47,43.47-127.76,206.78-75.08,277.9-80.35,11.35-.84,22.71,4.22,33.74,13.54l0,0C2319.8,1048.27,2362.18,1193.41,2360.13,1232.27Z"/><path class="cls-27" d="M2499.1,1208.88c-25.68,32.58-70.25,62.16-112.63,65.53-65.85,5.27-68.49-58-68.49-58-68.48,23.71-76.39-52.68-84.29-97.46-5.19-29.4-59.19-37.22-95.67-39.14a166.92,166.92,0,0,0-52.47,5.45c-170,46.36-186.63-105.55-186.34-169.64.08-16.49,1.27-27.15,1.27-27.15-52.69-144.88,63.21-137,63.21-137,114.59-101.41,299,90.88,299,90.88,173.85-152.78,187,205.46,187,205.46,42.14-7.9,68.49,63.22,71.12,108C2521.76,1171.84,2513.33,1190.81,2499.1,1208.88Z"/><path class="cls-28" d="M2499.1,1208.88c-25.68,32.58-70.25,62.16-112.63,65.53-65.85,5.27-68.49-58-68.49-58-68.48,23.71-76.39-52.68-84.29-97.46-5.19-29.4-59.19-37.22-95.67-39.14a166.92,166.92,0,0,0-52.47,5.45c-170,46.36-186.63-105.55-186.34-169.64,21.44,25.05,52.13,43,96.09,41.33,134.34-5.27,213.37-131.7,300.29,5.27C2378.91,1093.56,2331.55,1234.51,2499.1,1208.88Z"/><path class="cls-29" d="M2204.08,1028a161,161,0,0,0,6.79,29.87,139.82,139.82,0,0,0,12.29,27.52,135.25,135.25,0,0,0,17.65,24.38c3.22,3.93,7,7.29,10.64,10.9a68,68,0,0,0,5.75,5.1c2,1.66,3.9,3.38,5.84,5.15-2.31-1.17-4.61-2.38-6.9-3.65a58.72,58.72,0,0,1-6.72-4c-4.2-3.09-8.61-6-12.3-9.82a72.2,72.2,0,0,1-5.66-5.54l-5.17-6a25.3,25.3,0,0,1-2.39-3.17l-2.25-3.28-2.24-3.28c-.73-1.1-1.34-2.28-2-3.43-1.23-2.35-2.62-4.61-3.7-7s-2.19-4.82-3.21-7.26l-2.56-7.51c-.84-2.5-1.38-5.09-2-7.64A87.32,87.32,0,0,1,2204.08,1028Z"/><path class="cls-29" d="M1987.62,735.74A197.6,197.6,0,0,0,1970,751.55a144.79,144.79,0,0,0-15,17.85,99.39,99.39,0,0,0-11.13,20.3c-3,7.19-4.57,14.84-5.85,22.76-.6-7.92-.27-16.22,2.29-24A76.53,76.53,0,0,1,1951,766.62,95.47,95.47,0,0,1,1987.62,735.74Z"/><path class="cls-30" d="M3268.9,2320.16c-54.71,63.14-163.21,38.85-204.65,26.52-10.43-3.11-16.62-5.45-16.62-5.45s2.29,23.94,10.62,65.85c4.29,21.79,10.24,48.39,18.36,79,23.7,89.56,15.8,208.09,15.8,208.09-57.24,29-132.15,41.62-209.7,45-190.16,8.13-396.14-39.7-396.14-39.7l-2.64-71.12c-2.63-118.54-76.39-318.73-113.26-421.46-30.53-85.06-21.34-316.44-17.28-393.48a56.42,56.42,0,0,0,7.19-.45c20.52-2.61,46.67-8.83,71-23.13,1-.58,2-1.18,3-1.82s2-1.23,3-1.89,2-1.29,3-2,1.95-1.37,2.93-2.08,1.95-1.42,2.9-2.16,1.92-1.5,2.87-2.27c1.92-1.52,3.79-3.13,5.63-4.79l21.13-3.21q3.82,21.88,8.48,43c50.92,232.65,168,394.25,168,394.25,49.94-49.94,139.26-302.9,179.51-422.2,7.09-21,12.67-37.93,16.23-48.81,2.89-8.79,4.45-13.67,4.45-13.67,6.19,2,12.33,4.22,18.33,6.51,124.07,47.31,212.18,149.46,273.42,255.8C3238.26,2147.44,3268.9,2320.16,3268.9,2320.16Z"/><path class="cls-3" d="M2085.34,1682l33.77,157.48s94.83-2.63,187-171.22,68.49-218.63,68.49-218.63l-44.78-7.9S2256,1663.85,2085.34,1682Z"/><path class="cls-31" d="M3241.24,1955.33c-14.3,58.61-67,80.45-100.1,63.22-48-83.42-110.79-183.36-195.37-246.76-28.45-21.34-59.37-38.54-93.06-49.58,0,0-1.56,4.88-4.45,13.67-2,6-4.56,13.89-7.67,23.26-2.53,7.56-5.37,16.12-8.56,25.55-26.92-6.16-52.58-8.21-74.89-4.13,13.23-23.92,24.68-53.79,32.82-91.12a537.94,537.94,0,0,0,10.07-67.32l5.24-57.53c-40.2-1.21-98.57-21.71-126.41-121.59-22.58-81-51.18-117.83-74-134.42-22.44-16.33-39.27-13.09-39.27-13.09s-55.32,10.53-76.39,76.39a231.74,231.74,0,0,1-15.36,36.32c-1.63,3.13-3.32,6.22-5.05,9.22a353.61,353.61,0,0,1-56,73s-2.16,21.94-2.26,55.34c-.14,42.39,3,103.23,18.07,161.24,6.05,23.39,14.06,46.28,24.57,67.33a139.43,139.43,0,0,1-21.57,15.51c-24.37,14.3-50.52,20.52-71,23.13a56.79,56.79,0,0,1-57.37-29.85c-73.55-142,34.53-338.8,34.53-338.8,0-245,226.53-300.29,226.53-300.29,13.17-13.17,57.95-7.9,57.95-7.9s6.51-.31,17.78.24c56-32.19,125.33,9.09,164,44.54,25.39,13,40.72,26.11,64.53,48.73,94.75,90,57.45,237.52,165.77,335.27a260.64,260.64,0,0,0,42.33,30.88c55.1,32.5,94.85,72.3,122.27,114.9C3251.41,1792.33,3258.55,1884.37,3241.24,1955.33Z"/><path class="cls-32" d="M2871,1728.72c-6-2.29-12.14-4.48-18.33-6.51,0,0-1.56,4.88-4.45,13.67-3.56,10.88-9.14,27.77-16.23,48.81-31-7.08-60.22-8.74-84.69-1.89-113.26,31.61-279.21-23.71-279.21-23.71a131,131,0,0,1-13.23,13.75c-1.84,1.66-3.71,3.27-5.63,4.79-.95.79-1.93,1.53-2.87,2.27s-1.93,1.45-2.9,2.16-1.95,1.4-2.93,2.08-2,1.34-3,2-2,1.29-3,1.89-2,1.24-3,1.82c-17.78-41.54-27.69-90.64-29.35-146.64-5.26-176.49,23.05-166,23.05-166L2854,1583.92C2871.12,1646.64,2886.32,1680.88,2871,1728.72Z"/><path class="cls-32" d="M2602.47,1234.9a61.69,61.69,0,0,1-5.06-13.76,97.8,97.8,0,0,1-2.37-14.53,65.23,65.23,0,0,1,.26-14.84,63,63,0,0,1,3.78-14.41,66.39,66.39,0,0,1,7.09-13.11,67.59,67.59,0,0,1,9.86-11.07,101.11,101.11,0,0,1,24-16.82,140.44,140.44,0,0,0-22.34,18.5,68.42,68.42,0,0,0-15.79,23.6,65.86,65.86,0,0,0-4.5,28C2597.84,1216.08,2599.13,1225.73,2602.47,1234.9Z"/><path class="cls-33" d="M3198.88,1710.68c-22.94,18.65-60.4,24.07-121-.32-114.9-46.28-127.3,9.93-132.15,61.43-28.45-21.34-59.37-38.54-93.06-49.58,0,0-1.56,4.88-4.45,13.67-2,6-4.56,13.89-7.67,23.26-15.88-20.57-33-44.22-50.63-69.7a537.94,537.94,0,0,0,10.07-67.32l5.24-57.53c-40.2-1.21-98.57-21.71-126.41-121.59-22.58-81-51.18-117.83-74-134.42,79.63,29,134.24,237.25,196.48,159.44,63.22-79,68.49,58,189.66,102.73,22,8.11,35.64,4.9,43.28-5.85a260.64,260.64,0,0,0,42.33,30.88C3131.71,1628.28,3171.46,1668.08,3198.88,1710.68Z"/><path class="cls-33" d="M2405.79,1692.62s-17.94,144.46-100.68,90.16c0,0,31,67.23,126.69,5.17Z"/><ellipse class="cls-34" cx="2221.17" cy="1352.29" rx="85.83" ry="75.96" transform="matrix(0.26, -0.97, 0.97, 0.26, 342.63, 3150.44)"/><path class="cls-34" d="M1940.09,1300c-6.58,31.45-25.15,56-46.7,65.38,4.37-50,13.25-102.81,23-150.46C1937.27,1230.29,1947.6,1264.17,1940.09,1300Z"/><ellipse class="cls-25" cx="2149.4" cy="1245.44" rx="25.02" ry="14.49" transform="translate(136.6 2701.35) rotate(-65.97)"/><ellipse class="cls-25" cx="1965.01" cy="1205.93" rx="23.28" ry="13.48" transform="translate(63.39 2509.52) rotate(-65.97)"/><path class="cls-25" d="M1982.13,1107.15a29.35,29.35,0,0,1,13.51,1.67,38.91,38.91,0,0,1,12,6.85c.88.74,1.69,1.57,2.54,2.36.41.41.84.8,1.23,1.23l1.11,1.32c.72.9,1.5,1.76,2.16,2.7s1.25,1.93,1.86,2.9c.31.48.62,1,.9,1.46l.74,1.54,1.44,3.1a62.22,62.22,0,0,1,2,6.48c-1.38-1.83-2.49-3.74-3.75-5.55l-1.94-2.66-1-1.33c-.33-.42-.7-.82-1-1.25-.69-.83-1.38-1.66-2-2.5s-1.47-1.56-2.2-2.34l-1.09-1.18c-.38-.38-.79-.72-1.19-1.08-.79-.7-1.54-1.47-2.36-2.14a57.11,57.11,0,0,0-10.66-7A54.36,54.36,0,0,0,1982.13,1107.15Z"/><path class="cls-25" d="M2224.47,1167.73a98.63,98.63,0,0,0-14.8-2.5,61.82,61.82,0,0,0-14.59.27,44.26,44.26,0,0,0-13.76,4.25,55.24,55.24,0,0,0-12.16,8.52,33,33,0,0,1,10.59-11.25,36.06,36.06,0,0,1,14.76-5.48,44.8,44.8,0,0,1,15.63.59A43.75,43.75,0,0,1,2224.47,1167.73Z"/><path class="cls-25" d="M2054.57,1184.85q-15.33,20.58-29.43,41.93c-4.64,7.15-9.23,14.32-13.52,21.67s-8.48,14.75-12.25,22.35a200.94,200.94,0,0,0-10.08,23.28,117.15,117.15,0,0,0-3.63,12.08,75.88,75.88,0,0,0-2,12.37,51.84,51.84,0,0,0-.08,6.23c.09,1,.14,2.09.29,3a15.66,15.66,0,0,0,.72,2.87,14.79,14.79,0,0,0,3,5.08,12.58,12.58,0,0,0,2.23,2,10.13,10.13,0,0,0,2.62,1.28c3.88,1.29,8.21,1.47,12.43,1.59s8.53-.08,12.8-.3c-4.23.61-8.48,1.12-12.78,1.35-2.15.11-4.3.15-6.47.05a29.45,29.45,0,0,1-6.53-.92,11.81,11.81,0,0,1-3.19-1.35,15.39,15.39,0,0,1-2.7-2.12,17.31,17.31,0,0,1-3.78-5.7,18.12,18.12,0,0,1-1-3.29c-.24-1.15-.31-2.22-.45-3.32a53.77,53.77,0,0,1-.17-6.59,71.39,71.39,0,0,1,1.67-13,119.84,119.84,0,0,1,3.46-12.54A191.58,191.58,0,0,1,1995.8,1269c3.87-7.69,8.09-15.19,12.57-22.52s9.21-14.49,14.18-21.47A421.68,421.68,0,0,1,2054.57,1184.85Z"/><path class="cls-35" d="M2007.16,1424.56s50,13.17,92.19-7.9c0,0,18.44,102.73-65.85,94.82C2033.5,1511.48,2038.77,1448.27,2007.16,1424.56Z"/><path class="cls-26" d="M2282.42,1423.24s113.27,0,131.71-79-55.32-71.12-65.85-60.59Z"/><path class="cls-26" d="M2848.26,1735.88c-17.1,52.21-80.45,242.5-136.53,367.15l0,0c-21.89,48.65-42.69,87.32-59.18,103.81,0,0-114.83-158.49-166.51-387.53-.5-2.21-1-4.48-1.5-6.72l36.3-108.87s252.87-13.17,326.63,31.61C2847.73,1735.54,2848,1735.73,2848.26,1735.88Z"/><path class="cls-36" d="M2711.7,2103.08c-21.89,48.65-42.69,87.32-59.18,103.81,0,0-114.83-158.49-166.51-387.53,0,0,125.68,328.26,167.82,352C2653.83,2171.33,2685.31,2145.38,2711.7,2103.08Z"/><path class="cls-36" d="M2482.62,1805.19s37.24,74.27,110.63,89.56C2656.47,1907.92,2785,1852,2775,1713Z"/><path class="cls-33" d="M2747.34,1548.36c21.08,26.34,118.54,26.34,118.54,26.34s-58-34.24-63.22-76.39"/><path class="cls-37" d="M2660.42,1932.94a95.53,95.53,0,0,1,12.72-10.85c2.23-1.69,4.58-3.2,6.89-4.77s4.75-2.94,7.13-4.43,4.86-2.75,7.31-4.1,5-2.54,7.46-3.81,5.06-2.38,7.61-3.53,5.09-2.31,7.69-3.32l7.8-3.06c2.63-1,5.27-1.86,7.91-2.77l4-1.35c1.32-.46,2.67-.81,4-1.22,2.67-.81,5.35-1.59,8-2.36,5.37-1.53,10.82-2.72,16.23-4q8.21-1.65,16.43-3.07c-5.35,1.59-10.72,3-16.07,4.5l-8,2.41c-2.64.84-5.33,1.51-8,2.44-5.23,1.83-10.57,3.35-15.73,5.37l-7.8,2.83-7.7,3.1c-2.6,1-5.12,2.11-7.65,3.22s-5.08,2.18-7.57,3.4-5,2.32-7.48,3.59-4.93,2.5-7.37,3.81c-4.84,2.66-9.68,5.36-14.33,8.37A127,127,0,0,0,2660.42,1932.94Z"/><path class="cls-37" d="M2594.57,1935.58a192.31,192.31,0,0,0-19.49-13.5l-2.53-1.54-2.55-1.48c-1.71-1-3.4-2-5.16-2.89s-3.43-1.92-5.2-2.79l-5.28-2.65c-1.76-.88-3.56-1.67-5.34-2.52l-2.68-1.25-2.72-1.15-5.43-2.34c-1.84-.71-3.68-1.42-5.51-2.15l-2.75-1.09c-.92-.37-1.87-.65-2.79-1l-5.59-2c-1.84-.74-3.75-1.23-5.63-1.89s-3.77-1.25-5.65-1.91q2.94.52,5.86,1.11l2.93.6,1.47.3,1.44.37c3.84,1.06,7.74,2,11.49,3.3,1.9.62,3.8,1.25,5.68,1.9l5.58,2.18c.93.36,1.86.74,2.78,1.12l2.73,1.23c1.81.84,3.65,1.62,5.44,2.5a163,163,0,0,1,20.68,12.09A106.44,106.44,0,0,1,2594.57,1935.58Z"/><path class="cls-20" d="M3092.41,2694.2c-57.24,29-132.15,41.62-209.7,45,14.54-10.28,143.32-106.92,175.54-332.09,4.29,21.79,10.24,48.39,18.36,79C3100.31,2575.67,3092.41,2694.2,3092.41,2694.2Z"/><path class="cls-26" d="M3224.12,2441.33c0,73.75-55.32,81.65-55.32,81.65-183.23,22.89-245-320.59-258-410.65-24.11-100.89,27.42-200.51,30-205.52a1.37,1.37,0,0,0,.11-.21c32.24-72.17,76.31-132.36,91.06-151.59a3,3,0,0,1,5.4,1.84c.08,21.05-4.9,51.79-8.14,69.62,14.09-47.57,77-123,84.19-125.33,7.9-2.63,5.26,21.07,5.26,21.07,26.34,47.42,0,184.39,0,184.39s21.08-60.58,34.25-65.85,13.17,0,10.53,44.78-29,131.7-29,131.7c-6.59,96.15-64.54,133-64.54,133C3088.46,2205.57,3224.12,2367.57,3224.12,2441.33Z"/><path class="cls-36" d="M3087.14,1798.6c2.45-6.44,5-12.84,7.55-19.24l7.8-19.15,8-19,4.08-9.5c1.39-3.15,2.75-6.31,4.17-9.45-1.21,3.23-2.48,6.43-3.72,9.65l-3.83,9.6-7.79,19.14-8,19.05C3092.69,1786,3090,1792.31,3087.14,1798.6Z"/><path class="cls-36" d="M3029.78,1823.81c-1.46,5.47-3.05,10.91-4.67,16.33s-3.35,10.82-5.06,16.22-3.56,10.75-5.49,16.08a151.15,151.15,0,0,1-6.44,15.72q1.65-3.92,3-7.94c1-2.66,1.84-5.35,2.73-8,1.78-5.37,3.55-10.74,5.27-16.13l5.28-16.14C3026.15,1834.54,3027.93,1829.16,3029.78,1823.81Z"/><path class="cls-26" d="M2906.92,2084.61a56.11,56.11,0,0,1-14.7-22.6c-21.07-60.58-55.32-110.63-52.68-142.24.58-7.08,1.81-12.22,3.4-15.88,3.31-7.72,13.69-9.25,19.41-3,11,12,40.46,43.44,58.71,57.29,2,1.48,3.74,2.74,5.4,3.77,21.08,13.17,81.66,63.22,89.56,108C3022.74,2108,2943.61,2119.44,2906.92,2084.61Z"/><path class="cls-36" d="M2929.1,1964.55c8.63,4.6,17.19,9.34,25.45,14.64a198.71,198.71,0,0,1,23.69,17.52,112.91,112.91,0,0,1,19.74,22,68.49,68.49,0,0,1,6.87,13.14,49.66,49.66,0,0,1,3.27,14.36c-1.91-9.63-6.4-18.39-12.06-26.16a111.73,111.73,0,0,0-9.31-11.07c-3.32-3.5-6.83-6.84-10.48-10s-7.41-6.25-11.26-9.21-7.79-5.81-11.76-8.63C2945.3,1975.5,2937.09,1970.22,2929.1,1964.55Z"/><path class="cls-13" d="M2805.27,1564.59l-5.24,57.53c-6.3,70.56-20.44,88.24-40.83,125.12C2702.62,1849.39,2609.05,1850,2609.05,1850c-57.92.63-99.33-17.39-128-43a161.54,161.54,0,0,1-27.87-32.66c-12.77-19.76-18.52-43.94-24.57-67.33-15-58-18.21-118.85-18.07-161.24.1-33.4,2.26-55.34,2.26-55.34a353.61,353.61,0,0,0,56-73c1.73-3,3.42-6.09,5.05-9.22a231.74,231.74,0,0,0,15.36-36.32c21.07-65.86,76.39-76.39,76.39-76.39s15.22-2.93,36,10.85c23.29,15.38,53.58,51.76,77.24,136.66,12.25,44,30.42,72.51,50.33,90.85a114.18,114.18,0,0,0,62.06,29.55A125.33,125.33,0,0,0,2805.27,1564.59Z"/><path class="cls-26" d="M2790.81,1565.48l.44-2.08-4.39,48.18c-6.3,70.57-20.45,88.24-40.83,125.12-56.58,102.15-150.15,102.73-150.15,102.73-49.6.55-87.08-12.59-114.82-32.45a161.54,161.54,0,0,1-27.87-32.66c-12.77-19.76-18.52-43.94-24.57-67.33-15-58-18.21-118.85-18.07-161.24.1-33.4,2.26-55.34,2.26-55.34a353.61,353.61,0,0,0,56-73c1.73-3,3.42-6.09,5.05-9.22a231.74,231.74,0,0,0,15.36-36.32c21.07-65.86,76.39-76.39,76.39-76.39s15.22-2.93,36,10.85c20.81,19.52,44.65,56.5,64.07,126.12,14.9,53.47,38.56,84.19,63.5,101.39C2750.82,1548.76,2772.13,1564.93,2790.81,1565.48Z"/><path class="cls-34" d="M2428.62,1707c-15-58-18.21-118.85-18.07-161.24,28.84,3.24,53.65,35.43,57.37,76.71C2471.47,1662,2454.48,1696.82,2428.62,1707Z"/><ellipse class="cls-34" cx="2720.09" cy="1622.47" rx="77.72" ry="55.5" transform="translate(528.33 3908.83) rotate(-77.03)"/><path class="cls-25" d="M2496.37,1436.49c-4.75-3.66-9.07-7.06-13.39-10.22a110.28,110.28,0,0,0-13.06-8.24c-.37-.22-.77-.43-1.13-.61,1.73-3,3.42-6.09,5.05-9.22a7.61,7.61,0,0,1,.95.47,43.91,43.91,0,0,1,14,11.73A37.22,37.22,0,0,1,2496.37,1436.49Z"/><path class="cls-25" d="M2535.3,1512.8c-2.16,13.76-4.21,27.5-6,41.25-.87,6.89-1.78,13.76-2.48,20.65s-1.41,13.78-1.84,20.69-.82,13.8-.83,20.69a158.45,158.45,0,0,0,1.07,20.57,74.84,74.84,0,0,0,2,10,33.19,33.19,0,0,0,3.89,9.27,18.19,18.19,0,0,0,3.14,3.84,15.21,15.21,0,0,0,4.2,2.62,18.6,18.6,0,0,0,10.11.55,18.15,18.15,0,0,1-10.46.5,15.23,15.23,0,0,1-4.84-2.48,20,20,0,0,1-3.77-3.91,35.13,35.13,0,0,1-4.77-9.62,70,70,0,0,1-2.54-10.32c-2.31-14-2-28.07-1.14-42q.77-10.45,2.08-20.85c.92-6.91,1.91-13.82,3.15-20.68A416.9,416.9,0,0,1,2535.3,1512.8Z"/><ellipse class="cls-25" cx="2652.52" cy="1540.46" rx="14.49" ry="25.02"/><ellipse class="cls-25" cx="2465.49" cy="1540.46" rx="25.02" ry="14.49" transform="translate(529.69 3709.4) rotate(-80.25)"/><path class="cls-35" d="M2547.84,1740.88c1.68.51,3.58.95,5.41,1.33s3.72.69,5.6,1a93.86,93.86,0,0,0,11.37.92,77.44,77.44,0,0,0,22.61-2.69,60.67,60.67,0,0,0,20.5-10,27.71,27.71,0,0,0,2.25-1.8c.73-.63,1.5-1.22,2.19-1.89,1.37-1.34,2.8-2.65,4.05-4.13a70.53,70.53,0,0,0,7-9.27,69.1,69.1,0,0,1-6.52,9.67c-1.18,1.56-2.54,3-3.87,4.4-.66.73-1.41,1.36-2.11,2a28.92,28.92,0,0,1-2.2,1.95,62.33,62.33,0,0,1-20.55,11.43,80.65,80.65,0,0,1-23.32,4,98.15,98.15,0,0,1-11.88-.32c-2-.19-4-.4-5.93-.7s-3.89-.63-6-1.14a2.5,2.5,0,0,1,1.19-4.86l.12,0Z"/><path class="cls-25" d="M2704.73,1455.09a106.4,106.4,0,0,0-15-7.41,68.54,68.54,0,0,0-15.73-4.25,49.79,49.79,0,0,0-16.11.35,60.29,60.29,0,0,0-15.59,5.56,37.07,37.07,0,0,1,14.84-8.59,40.15,40.15,0,0,1,17.4-1.28,52.92,52.92,0,0,1,30.18,15.62Z"/><polygon class="cls-38" points="744.1 1283.63 944.29 1871.04 1228.78 2692.88 3636.36 2692.88 3910.3 1910.55 1897.84 806.86 744.1 1283.63"/><path class="cls-39" d="M1888.25,800.31,1673.94,1389l-567.31-107.63-460-87.3L907.42,643.54l67.22,9.8,905.42,133.24A10.31,10.31,0,0,1,1888.25,800.31Z"/><path class="cls-40" d="M1106.63,1281.37l-460-87.3L907.42,643.54l67.22,9.8C967.34,730.73,936.68,1148,1106.63,1281.37Z"/><polyline class="cls-41" points="1676.58 1420.61 1676.58 1386.36 1085.82 1272.23 646.64 1194.07 657.17 1228.32"/><path class="cls-42" d="M1801.38,831.8l-30.21,64.75a7.61,7.61,0,0,1-8,4.27l-270.23-42.15a7.54,7.54,0,0,1-6.35-8.16,7.08,7.08,0,0,1,1.08-3.3l38.77-62.45a7.54,7.54,0,0,1,7.56-3.48l261.67,39.86a4.74,4.74,0,0,1,1.11.26A7.54,7.54,0,0,1,1801.38,831.8Z"/><path class="cls-43" d="M1796.77,821.4a7.14,7.14,0,0,1-.66,2.5l-30.21,64.75a7.58,7.58,0,0,1-8,4.26l-270.23-42.14a4.87,4.87,0,0,1-1.08-.26,7.08,7.08,0,0,1,1.08-3.3l38.77-62.45a7.54,7.54,0,0,1,7.56-3.48l261.67,39.86A4.74,4.74,0,0,1,1796.77,821.4Z"/><ellipse class="cls-44" cx="1554.09" cy="822.66" rx="32.93" ry="28.98"/><path class="cls-45" d="M1581.75,822.66c0,13.44-12.38,24.34-27.66,24.34a29.53,29.53,0,0,1-19.41-7l-.11-.11a22.78,22.78,0,0,1-8.14-17.2c0-13.43,12.38-24.34,27.66-24.34a29,29,0,0,1,22.05,9.67s.08,0,.1.11A22.4,22.4,0,0,1,1581.75,822.66Z"/><path class="cls-46" d="M1581.75,822.66c0,13.44-12.38,24.34-27.66,24.34a29.53,29.53,0,0,1-19.41-7l-.11-.11a22.39,22.39,0,0,1-5.5-14.56c0-13.44,12.38-24.34,27.65-24.34a29.58,29.58,0,0,1,19.42,7s.08,0,.1.11A22.4,22.4,0,0,1,1581.75,822.66Z"/><ellipse class="cls-47" cx="1552.77" cy="810.81" rx="7.9" ry="6.59"/><ellipse class="cls-47" cx="1540.66" cy="817.39" rx="6.32" ry="5.27"/><ellipse class="cls-44" cx="1616.23" cy="838.47" rx="23.95" ry="21.07"/><path class="cls-45" d="M1636.35,838.47c0,9.77-9,17.7-20.12,17.7a21.51,21.51,0,0,1-14.12-5.12L1602,851a16.58,16.58,0,0,1-5.92-12.51c0-9.77,9-17.7,20.11-17.7a21.08,21.08,0,0,1,16,7s0,0,.07.07A16.31,16.31,0,0,1,1636.35,838.47Z"/><path class="cls-46" d="M1636.35,838.47c0,9.77-9,17.7-20.12,17.7a21.51,21.51,0,0,1-14.12-5.12L1602,851a16.31,16.31,0,0,1-4-10.6c0-9.77,9-17.7,20.12-17.7a21.53,21.53,0,0,1,14.12,5.12s0,0,.07.07A16.31,16.31,0,0,1,1636.35,838.47Z"/><ellipse class="cls-47" cx="1615.27" cy="829.85" rx="5.75" ry="4.79"/><ellipse class="cls-47" cx="1606.46" cy="834.64" rx="4.6" ry="3.83"/><polyline class="cls-43" points="1673.94 1389 1888.87 793.69 1892.57 827.93 1676.58 1420.61"/><path class="cls-31" d="M2519,1300.58s-41.51,48.91-35.55,99.22,51.69,70.83,51.69,70.83-82.51-71.45,23.79-185.67C2558.88,1285,2542.08,1270,2519,1300.58Z"/><path class="cls-48" d="M854.73,970.17s44.78-7.9,60.59,18.44,21.07,102.73-268.68,205.46l18.44-41.26Z"/><path class="cls-49" d="M920.59,683.06s47.41-10.54,60.58,36.87S875.81,822.66,875.81,822.66H833.66Z"/><path class="cls-16" d="M833.66,822.66l-187,108s-12.22-9.06-17.33-28.87c-7.22-27.95-.27-77.34,75.28-152.88,129.07-129.07,181.75-176.49,223.9-163.32,14.2,4.43,23.92,18.18,25.23,39.36C956.25,666.59,926.2,737.11,833.66,822.66Z"/><path class="cls-48" d="M1009.92,766.15s84.19,75.71-7.68,146.07c-123.8,94.83-86.92,76.39-86.92,76.39L765,961.14Z"/><path class="cls-36" d="M833.66,822.66l-187,108s-12.22-9.06-17.33-28.87c7.45-12.12,23.65-25.58,56.84-37,84.29-29,242.71-131.89,267.55-239.81,0,0,0,0,0,0C956.25,666.59,926.2,737.11,833.66,822.66Z"/><path class="cls-16" d="M827.47,958.56l-219,99.86s-33.11-31-11.3-82.11a129.32,129.32,0,0,1,11.3-20.62C643.9,902.48,886.39,784,962.39,747.78a34.52,34.52,0,0,1,43.41,11.69c1.42,2.11,2.82,4.35,4.16,6.69C1032.35,806,1035.09,881.17,827.47,958.56Z"/><path class="cls-36" d="M827.47,958.56l-219,99.86s-33.11-31-11.3-82.11c20.15,11.78,98.1-2.16,207.76-46.91,145.08-59.24,205-163.24,205-163.24h.05C1032.35,806,1035.09,881.17,827.47,958.56Z"/><path class="cls-16" d="M865.61,1066a78.5,78.5,0,0,1-24.86,16L665.08,1165.1s-80.34-14.49-83-51.37c0,0-2.76-6.32-2-16.7,2.37-30.63,36-96.75,265.09-140,18.76-3.56,37.88,6.95,48.29,23,.26.39.52.81.79,1.23v0C905.26,999.18,906.39,1027,865.61,1066Z"/><path class="cls-36" d="M865.61,1066a78.5,78.5,0,0,1-24.86,16L662.44,1165.1s-77.7-14.49-80.34-51.37c0,0-2.76-6.32-2-16.7,20.54,39.12,147.35-6.87,224.55-21.49,92.88-17.57,90.07-87.77,89.62-94.33C905.26,999.18,906.39,1027,865.61,1066Z"/><path class="cls-50" d="M1819.85,2423.28c-85.56-197.79-184.1-448.19-184.1-448.19-1.58-.13,40,12.85,101.41-43.47,0,0,7.9,44.78-58,76.39C1679.21,2008,1739.74,2222,1819.85,2423.28Z"/><circle class="cls-51" cx="2029.55" cy="1773.58" r="26.34"/><circle class="cls-51" cx="2053.25" cy="1905.28" r="26.34"/><path class="cls-26" d="M2759.2,1710.36s97.46-7.9,110.63-71.12-5.46-107.37-55.32-89.56c-36.87,13.17-34.24,100.09-34.24,100.09Z"/><path class="cls-52" d="M1499.33,1370.56a13.25,13.25,0,0,1-15.46,10.45l-220.16-42.42a13.18,13.18,0,0,1,2.42-26.13,14.08,14.08,0,0,1,2.58.24l220.16,42.41A13.23,13.23,0,0,1,1499.33,1370.56Z"/><path class="cls-53" d="M1494.41,1375.53a12.94,12.94,0,0,1-1.45,3.93,13.24,13.24,0,0,1-9.09,1.55l-220.16-42.42a10.81,10.81,0,1,1-2.5-21.16,13.89,13.89,0,0,1,2.57.24L1484,1360.08A13.23,13.23,0,0,1,1494.41,1375.53Z"/><path class="cls-52" d="M1214.85,1315.24a13.17,13.17,0,0,1-6.37,8.9,13,13,0,0,1-6.52,1.78,13.24,13.24,0,0,1-2.58-.23l-220.16-42.42a13.21,13.21,0,0,1-10.46-15.44,12.94,12.94,0,0,1,1.45-3.93,13.25,13.25,0,0,1,14-6.52l220.16,42.42A13.23,13.23,0,0,1,1214.85,1315.24Z"/><path class="cls-53" d="M1209.93,1320.21a13.21,13.21,0,0,1-1.45,3.93,13,13,0,0,1-6.52,1.78,13.24,13.24,0,0,1-2.58-.23l-220.16-42.42a13.21,13.21,0,0,1-10.46-15.44,12.94,12.94,0,0,1,1.45-3.93,13.24,13.24,0,0,1,9.09-1.55l220.16,42.42A13.23,13.23,0,0,1,1209.93,1320.21Z"/><path class="cls-36" d="M588.69,1046.56l-5,11C585.08,1054.07,586.76,1050.43,588.69,1046.56Z"/><path class="cls-26" d="M3468.11,1456.77s264.36,607.16,0,655.22c-187.2,34-187.2-570.12-187.2-570.12s-100.25-.09-152.94-160.77c-10.93-33.34,8.28-145.57,110.39-171.1s187.21-17,221.24,8.51S3468.11,1456.77,3468.11,1456.77Z"/><path class="cls-26" d="M3461.11,1341.37c-11,30.51-26.87,52.58-44.15,46.23-42.43-15.57-38.75-46-25.47-124.62,8.3-49,25.47-70.07,25.47-70.07l.5-.13c3.69-.89,27-5.11,50.39,23.5C3483,1234.74,3477.15,1297,3461.11,1341.37Z"/><path class="cls-36" d="M3461.11,1341.37c-11,30.51-26.87,52.58-44.15,46.23-42.43-15.57-38.75-46-25.47-124.62,8.3-49,25.47-70.07,25.47-70.07l.5-.13C3414.41,1209,3386.48,1366.4,3461.11,1341.37Z"/><path class="cls-26" d="M3408.27,1350.17c-5.24,8.48-12,13.14-20.34,12.09-44.83-5.71-54.5-33.85-52.65-115.77.26-11.83.92-22.2,1.76-31.16a3.83,3.83,0,0,0,0-.39c2.71-28.48,7.35-42.47,7.35-42.47s23-13.27,54.81,11.41C3425.1,1204,3431.08,1313.19,3408.27,1350.17Z"/><path class="cls-36" d="M3408.27,1350.17c-5.24,8.48-12,13.14-20.34,12.09-44.83-5.71-54.5-33.85-52.65-115.77.26-11.83.92-22.2,1.76-31.16-.29,8.51-4.42,150.83,71.2,134.84Z"/><path class="cls-36" d="M3230.7,1365.29s126.44,2.63,181.76,68.49C3412.46,1433.78,3301.82,1378.46,3230.7,1365.29Z"/><path class="cls-26" d="M3332,1422.74c-17,34-195.72,8.51-204.22-42.54,0-.08,0-.13,0-.21-8.38-50.92,28.21-65,28.21-65,99.31,21.65,159.39,53.1,174.8,82v0C3335.54,1405.93,3336,1414.65,3332,1422.74Z"/><path class="cls-36" d="M3332,1422.74c-17,34-195.72,8.51-204.22-42.54,0-.08,0-.13,0-.21,44,17.49,213.84,81.13,203,17C3335.54,1405.93,3336,1414.65,3332,1422.74Z"/><path class="cls-26" d="M3224,901.69h55.56a17,17,0,0,1,17,17V1240a12,12,0,0,1-12,12H3219a12,12,0,0,1-12-12V918.69A17,17,0,0,1,3224,901.69Z" transform="translate(-167.59 872.81) rotate(-14.91)"/><path class="cls-26" d="M3115.86,960.5h55.56a17,17,0,0,1,17,17v296.29a12,12,0,0,1-12,12h-65.56a12,12,0,0,1-12-12V977.5a17,17,0,0,1,17-17Z" transform="translate(-172.1 1510.17) rotate(-26.32)"/></g><rect class="cls-54" x="910.57" y="1869.19" width="207.79" height="144.33" rx="12"/><polygon class="cls-54" points="1014.46 2059.12 1050.89 2009.99 978.03 2009.99 1014.46 2059.12"/><path class="cls-3" d="M1024.16,1919.44c-5.9-10.09-20.79-15.16-35.18,1.66-14.4-16.82-29.29-11.75-35.19-1.66-14.54,24.88,35.19,54.15,35.19,54.15S1038.7,1944.32,1024.16,1919.44Z"/><path class="cls-3" d="M1069.13,1959.91h-9V1935.3l.09-4,.14-4.42q-2.23,2.23-3.11,2.94l-4.89,3.92-4.33-5.41,13.7-10.91h7.39Z"/><rect class="cls-54" x="3542.62" y="1132.32" width="207.79" height="144.33" rx="12"/><polygon class="cls-54" points="3646.51 1322.25 3682.95 1273.11 3610.08 1273.11 3646.51 1322.25"/><path class="cls-3" d="M3656.22,1182.57c-5.9-10.09-20.79-15.16-35.19,1.66-14.39-16.82-29.29-11.75-35.18-1.66-14.54,24.88,35.18,54.15,35.18,54.15S3670.75,1207.45,3656.22,1182.57Z"/><path class="cls-3" d="M3701.18,1223h-9v-24.61l.09-4,.15-4.42c-1.5,1.49-2.53,2.47-3.12,2.93l-4.88,3.93-4.34-5.41,13.7-10.91h7.39Z"/><rect class="cls-54" x="1673.31" y="626.07" width="220.71" height="153.3" rx="12"/><polygon class="cls-54" points="1783.66 827.81 1822.36 775.62 1744.96 775.62 1783.66 827.81"/><path class="cls-3" d="M1841.73,722.43h-9.55V696.29l.09-4.29.15-4.7q-2.37,2.38-3.3,3.12l-5.19,4.17-4.61-5.74,14.56-11.59h7.85Z"/><path class="cls-3" d="M1771,675.74h-31.33A24.29,24.29,0,0,0,1715.41,700h0a24.22,24.22,0,0,0,10.5,19.92v17l17.43-12.75H1771A24.28,24.28,0,0,0,1795.16,700h0A24.29,24.29,0,0,0,1771,675.74Z"/><ellipse class="cls-55" cx="2844.18" cy="1133.17" rx="54.49" ry="73.16"/><ellipse class="cls-55" cx="855.92" cy="2286.31" rx="54.49" ry="73.16"/><ellipse class="cls-55" cx="3829.26" cy="2100.15" rx="54.49" ry="73.16"/></g></g></svg>